{"title":"Centurion.2010.DvDRiP..X264.SDTeam.https://www.scenedemon.org","uid":5753148,"size":441272126,"categoryP":"video","categoryS":"movies","magnet":"?xt=urn:btih:07f58b105c16d87b4f3c70bd04adb2a87f525546&amp;dn=Centurion.2010.DvDRiP..X264.SDTeam.https%3A%2F%2Fwww.scenedemon.org&amp;tr=udp%3A%2F%2Ftracker.openbittorrent.com%3A80&amp;tr=udp%3A%2F%2Fopen.demonii.com%3A1337&amp;tr=udp%3A%2F%2Ftracker.coppersurfer.tk%3A6969&amp;tr=udp%3A%2F%2Fexodus.desync.com%3A6969","seeders":0,"leechers":1,"uploader":"bg2k9","files":34,"time":1281465903,"description":"Language.....: English -(GREETZ TO THE GREATZ:\n[b][color=#FF0000] &lt;a href=&quot;\nhttp://www.seedboxworld.com(&quot; rel=&quot;nofollow&quot; target=&quot;_NEW&quot;&gt;\nhttp://www.seedboxworld.com(&lt;/a&gt; for your cheap fast seedbox needs )\n\n\nBadGirl2k9  \t \t \t\nUnDeaD \nalgpz500 \t\t\t\nvirusofsaten \t \t\t\nWICCYWOLF\t\nFoxyB \t\t\t \t\t\nJoker321[/color][/b]\n &lt;a href=&quot;\nhttp://www.imdb.com/title/tt1020558/&quot; rel=&quot;nofollow&quot; target=&quot;_NEW&quot;&gt;\nhttp://www.imdb.com/title/tt1020558/&lt;/a&gt;\n\n\nCenturion.2010.DvDRiP..X264.SDTeam\n\nA splinter group of Roman soldiers fight for their lives behind enemy lines after their\n                     legion is decimated in a devastating guerrilla attack\n\nFormat                           : Matroska\nFile size                        : 421 MiB\nDuration                         : 1h 33mn\nOverall bit rate                 : 629 Kbps\nVideo\nID                               : 1\nFormat                           : AVC\nFormat/Info                      : Advanced Video Codec\nFormat profile                   : &lt;a class=&quot;__cf_email__&quot; href=&quot;/cdn-cgi/l/email-protection&quot; data-cfemail=&quot;e8a0818f80a8a4dac6d9&quot;&gt;[email&amp;#160;protected]&lt;/a&gt;&lt;script data-cfhash='f9e31' type=&quot;text/javascript&quot;&gt;\n/* &lt;![CDATA[ */!function(){try{var t=&quot;currentScript&quot;in document?document.currentScript:function(){for(var t=document.getElementsByTagName(&quot;script&quot;),e=t.length;e--;)if(t[e].getAttribute(&quot;data-cfhash&quot;))return t[e]}();if(t&amp;&amp;t.previousSibling){var e,r,n,i,c=t.previousSibling,a=c.getAttribute(&quot;data-cfemail&quot;);if(a){for(e=&quot;&quot;,r=parseInt(a.substr(0,2),16),n=2;a.length-n;n+=2)i=parseInt(a.substr(n,2),16)^r,e+=String.fromCharCode(i);e=document.createTextNode(e),c.parentNode.replaceChild(e,c)}t.parentNode.removeChild(t);}}catch(u){}}()/* ]]&gt; */&lt;/script&gt;\nFormat settings, CABAC           : Yes\nFormat settings, ReFrames        : 4 frames\nMuxing mode                      : Container profile=&lt;a class=&quot;__cf_email__&quot; href=&quot;/cdn-cgi/l/email-protection&quot; data-cfemail=&quot;1e4b7075707169705e2c302f&quot;&gt;[email&amp;#160;protected]&lt;/a&gt;&lt;script data-cfhash='f9e31' type=&quot;text/javascript&quot;&gt;\n/* &lt;![CDATA[ */!function(){try{var t=&quot;currentScript&quot;in document?document.currentScript:function(){for(var t=document.getElementsByTagName(&quot;script&quot;),e=t.length;e--;)if(t[e].getAttribute(&quot;data-cfhash&quot;))return t[e]}();if(t&amp;&amp;t.previousSibling){var e,r,n,i,c=t.previousSibling,a=c.getAttribute(&quot;data-cfemail&quot;);if(a){for(e=&quot;&quot;,r=parseInt(a.substr(0,2),16),n=2;a.length-n;n+=2)i=parseInt(a.substr(n,2),16)^r,e+=String.fromCharCode(i);e=document.createTextNode(e),c.parentNode.replaceChild(e,c)}t.parentNode.removeChild(t);}}catch(u){}}()/* ]]&gt; */&lt;/script&gt;\nCodec ID                         : V_MPEG4/ISO/AVC\nDuration                         : 1h 33mn\nBit rate                         : 490 Kbps\nNominal bit rate                 : 500 Kbps\nWidth                            : 576 pixels\nHeight                           : 240 pixels\nDisplay aspect ratio             : 2.40:1\nFrame rate                       : 25.000 fps\nOriginal frame rate              : 43 690.668 fps\nResolution                       : 8 bits\nColorimetry                      : 4:2:0\nScan type                        : Progressive\nBits/(Pixel*Frame)               : 0.142\nStream size                      : 328 MiB (78%)\n\nAudio\nID                               : 2\nFormat                           : MPEG Audio\nFormat version                   : Version 1\nFormat profile                   : Layer 3\nFormat_Settings_Mode             : Joint stereo\nFormat_Settings_ModeExtension    : MS Stereo\nCodec ID                         : A_MPEG/L3\nCodec ID/Hint                    : MP3\nDuration                         : 1h 33mn\nBit rate mode                    : Variable\nBit rate                         : 127 Kbps\nNominal bit rate                 : 128 Kbps\nChannel(s)                       : 2 channels\nSampling rate                    : 48.0 KHz\nStream size                      : 84.8 MiB (20%)\nWriting library                  : LAME3.90.\nEncoding settings                : -m j -V 4 -q 2 -lowpass 17.6 --abr 128\n\n\n\n\nMMMMMMMMMMMMMMMMMM","torrent":{"xt":"urn:btih:07f58b105c16d87b4f3c70bd04adb2a87f525546","amp;dn":"Centurion.2010.DvDRiP..X264.SDTeam.https%3A%2F%2Fwww.scenedemon.org","amp;tr":["udp%3A%2F%2Ftracker.openbittorrent.com%3A80","udp%3A%2F%2Fopen.demonii.com%3A1337","udp%3A%2F%2Ftracker.coppersurfer.tk%3A6969","udp%3A%2F%2Fexodus.desync.com%3A6969"],"infoHash":"07f58b105c16d87b4f3c70bd04adb2a87f525546","infoHashBuffer":{"type":"Buffer","data":[7,245,139,16,92,22,216,123,79,60,112,189,4,173,178,168,127,82,85,70]},"announce":[],"urlList":[]}}